<svg height="300" viewBox="0 0 800 300" width="800" xmlns="http://www.w3.org/2000/svg"><g fill="#ff7462" fill-rule="evenodd" transform="translate(254 110)"><path d="m219.830831 42.0062643v-30.2643578h-9.306548c-2.452401 0-4.464628-1.98862306-4.464628-4.41225746 0-2.42363439 2.012227-4.41225749 4.464628-4.41225749h28.296937c2.452401 0 4.464628 1.9886231 4.464628 4.41225749 0 2.4236344-2.012227 4.41225746-4.464628 4.41225746h-9.306548v30.2643578c0 2.6722123-2.137991 4.7851243-4.84192 4.7851243-2.70393 0-4.841921-2.112912-4.841921-4.7851243z" transform="matrix(.98480775 .17364818 -.17364818 .98480775 7.729203 -38.63642)"/><path d="m166.654256 60.9726293c-2.703929 0-4.84192-2.1129121-4.84192-4.7851244v-33.9308815c0-2.6722123 2.137991-4.7851244 4.84192-4.7851244h24.398248c3.458515 0 4.338864 1.9264787 4.338864 4.2879686s-1.949345 4.2258241-4.338864 4.2258241h-19.619209v8.824515h16.789516c2.389519 0 4.338863 1.9264786 4.338863 4.2879685s-1.949344 4.2258241-4.338863 4.2258241h-16.789516v9.1352373h19.93362c2.389519 0 4.338863 1.9264787 4.338863 4.2879686s-1.949344 4.2258241-4.338863 4.2258241z" transform="matrix(.99254615 -.12186934 .12186934 .99254615 -3.447524 22.077604)"/><path d="m110.045853 60.4383997v-34.6766152c0-2.6722123 2.13799-4.7851243 4.84192-4.7851243s4.84192 2.112912 4.84192 4.7851243v14.6039509l17.858512-17.5247411c1.194759-1.1807449 2.389519-1.8643341 4.087335-1.8643341 2.70393 0 4.464628 2.0507675 4.464628 4.4122575 0 1.4914673-.691703 2.6100678-1.760698 3.6043793l-12.387771 11.4345828 13.519648 16.7790074c.754585.9321671 1.320524 1.9264786 1.320524 3.3558015 0 2.6722123-2.075109 4.6608354-4.904803 4.6608354-1.886462 0-3.01834-.9321671-4.087335-2.2993455l-12.576416-16.2818516-5.533624 5.0958467v8.700226c0 2.6722123-2.13799 4.7851244-4.84192 4.7851244s-4.84192-2.1129121-4.84192-4.7851244z" transform="matrix(.9961947 -.08715574 .08715574 .9961947 -3.267672 11.358193)"/><path d="m72.5420738 52.8171032c-13.5825297 0-23.3292524-10.00526-23.3292524-22.3720099 0-12.4910388 9.8724869-22.62058767 23.4550166-22.62058767s23.3292525 10.00525997 23.3292525 22.37200987c0 12.4910388-9.8724869 22.6205877-23.4550167 22.6205877zm.1257642-8.824515c7.7973782 0 13.2052372-6.0901582 13.2052372-13.5474949v-.1242889c0-7.4573366-5.5336232-13.6717838-13.3310014-13.6717838-7.7973781 0-13.2052372 6.0901583-13.2052372 13.5474949v.1242889c0 7.4573366 5.5336232 13.6717838 13.3310014 13.6717838z"/><path d="m265.11845 68.3532211c-13.58253 0-23.329252-10.0052599-23.329252-22.3720098 0-12.4910388 9.872487-22.6205877 23.455016-22.6205877 13.58253 0 23.329253 10.0052599 23.329253 22.3720098 0 12.4910388-9.872487 22.6205877-23.455017 22.6205877zm.125764-8.824515c7.797379 0 13.205238-6.0901582 13.205238-13.5474948v-.124289c0-7.4573366-5.533624-13.6717837-13.331002-13.6717837s-13.205237 6.0901582-13.205237 13.5474948v.1242889c0 7.4573367 5.533623 13.6717838 13.331001 13.6717838z" transform="matrix(.98162718 .190809 -.190809 .98162718 13.622041 -49.756463)"/><path d="m8.05811184 70.579277v-34.3037484c0-2.6722123 2.13799076-4.7851244 4.84192036-4.7851244h13.1423551c10.5013077 0 16.852398 6.1523027 16.852398 15.0389622 0 10.1916934-7.9231423 15.411829-17.7956292 15.411829h-7.3572036v8.6380816c0 2.6722122-2.1379908 4.7851243-4.8419203 4.7851243-2.7039296 0-4.84192036-2.1129121-4.84192036-4.7851243zm9.68384066-17.1518742h7.671614c4.8419203 0 7.671614-2.8586457 7.671614-6.587314v-.124289c0-4.2879685-3.0183399-6.587314-7.8602602-6.587314h-7.4829678z" transform="matrix(.95105652 -.30901699 .30901699 .95105652 -15.263069 10.487579)"/></g></svg>