<svg fill="none" height="300" viewBox="0 0 800 300" width="800" xmlns="http://www.w3.org/2000/svg" xmlns:xlink="http://www.w3.org/1999/xlink"><mask id="a" height="220" maskUnits="userSpaceOnUse" width="678" x="59" y="39"><path d="m.285492 93.7587c-1.082163-28.2519-1.623242-42.3778 6.317558-53.4985 2.4904-3.4877 5.77815-6.7802 9.26235-9.2755 11.1095-7.9566 27.7904-7.3412 61.1521-6.1106 58.9595 2.1748 148.5755 1.1879 252.2375-14.4156 112.526-16.93752 218.906-10.054281 285.29-1.99576 27.199 3.30186 40.799 4.95276 50.514 14.52446 2.947 2.904 5.84 6.8843 7.693 10.584 6.106 12.1946 3.319 26.4573-2.254 54.9825l-13.209 67.6073c-5.399 27.634-8.099 41.45-16.593 50.043-2.817 2.85-5.824 5.11-9.346 7.024-10.615 5.77-24.956 4.492-53.639 1.937-59.565-5.305-149.581-11.378-230.112-8.917-87.512 2.674-196.955 8.495-263.1789 12.263-25.2471 1.436-37.8706 2.155-47.9945-3.465-3.221-1.787-6.3623-4.163-8.9592-6.776-8.1622-8.213-10.815-20.143-16.1205-44.003-3.24545-14.596-6.36798-29.725-8.47932-42.448-1.408-8.485-2.201264-18.144-2.581088-28.0603z" fill="#ff6f6f" transform="translate(60 39)"/></mask><g mask="url(#a)"><path d="m0 0h821.73v821.013h-821.73z" fill="#ff8080" fill-opacity=".15" transform="translate(31.126 -385.15)"/><path d="m41.1453 147.406c-32.44595-18.792-37.03071-102.1857-35.26734-141.53323h-5.87796l5.87796-5.87277 350.91004 5.87277c-43.104 61.85983-133.428 186.51923-149.886 190.27723-20.573 4.699-125.1992-25.253-165.7567-48.744z" fill="#deccca" transform="translate(130.493 -74)"/><path d="m324.7 61.6792c-12.09 10.3759-24.18 17.8696-40.875 27.0927-31.088 17.8701-92.689 47.8451-146.23 80.1251-24.756-44.962-53.5414-106.6414-76.5698-168.897l-45.481 18.4461c26.4826 62.2556 56.4195 129.1229 82.9022 175.8149-61.0253 42.656-98.4464 89.348-98.4464 148.145 0 85.313 77.7208 117.594 184.803 117.594 71.388 0 137.019-6.341 180.197-13.835v-51.879c-44.33 11.529-120.323 19.599-182.5 19.599-89.8107 0-134.7161-29.399-134.7161-76.667 0-43.233 31.664-80.702 84.6291-115.288 55.844-36.892 135.292-74.361 173.289-93.96 16.696-8.647 31.088-16.14 43.754-24.211z" fill="#ff8f8f" transform="matrix(-1 0 0 -1 232 622)"/><path d="m306.634 58.1228c-11.417 9.7776-22.834 16.8392-38.601 25.5305-29.358 16.8397-87.532 45.0857-138.094 75.5057-23.378-42.37-50.562-100.493-72.3092-159.159l-42.9505 17.3825c25.0092 58.666 53.2804 121.6775 78.2896 165.6775-57.6298 40.197-92.9689 84.196-92.9689 139.603 0 80.394 73.3965 110.813 174.521 110.813 67.416 0 129.395-5.975 170.171-13.037v-48.888c-41.863 10.864-113.629 18.469-172.346 18.469-84.8139 0-127.2207-27.703-127.2207-72.246 0-40.74 29.9022-76.048 79.9207-108.641 52.737-34.765 127.764-70.073 163.647-88.542 15.767-8.148 29.359-15.21 41.319-22.8144z" fill="#73d2ff" opacity=".5" transform="matrix(-1 0 0 -1 179.692 143.32)"/><path clip-rule="evenodd" d="m95.5 191c52.743 0 95.5-42.757 95.5-95.5 0-52.7432-42.757-95.5-95.5-95.5-52.7432 0-95.5 42.7568-95.5 95.5 0 52.743 42.7568 95.5 95.5 95.5zm0-36.515c32.577 0 58.985-26.408 58.985-58.985 0-32.5767-26.408-58.9853-58.985-58.9853-32.5767 0-58.9854 26.4086-58.9854 58.9853 0 32.577 26.4087 58.985 58.9854 58.985z" fill="#ff8f8f" fill-rule="evenodd" transform="translate(583 166)"/></g><path d="m10.5496 191.813c-25.0236-43.833-1.00098-90.954 25.0236-135.8829 67.0628-56.98314 192.1808-65.74976 222.2098-47.12067 30.028 18.62907 72.067 78.89967 69.065 140.26657-3.003 61.366-61.058 93.145-89.084 94.241-28.027 1.096-122.115 30.683-148.14 30.683-26.0245 0-54.0508-38.354-79.0744-82.187z" fill="#292723" transform="translate(232 12)"/><g clip-rule="evenodd" fill="#fff" fill-rule="evenodd"><path d="m10.7099 30.947v-23.96056h-7.23775c-1.90724 0-3.47215-1.57441-3.47215-3.49322s1.56491-3.49322 3.47215-3.49322h22.00665c1.9072 0 3.4721 1.57441 3.4721 3.49322s-1.5649 3.49322-3.4721 3.49322h-7.2378v23.96056c0 2.1156-1.6627 3.7884-3.7655 3.7884-2.1029 0-3.7656-1.6728-3.7656-3.7884z" transform="matrix(.984233 .176875 -.170477 .985362 452.135 128.844)"/><path d="m3.76378 34.4559c-2.10185 0-3.76378-1.6736-3.76378-3.7902v-26.87555c0-2.11658 1.66193-3.79015 3.76378-3.79015h18.96552c2.6884 0 3.3728 1.5259 3.3728 3.39637 0 1.87046-1.5153 3.34714-3.3728 3.34714h-15.25062v6.98959h13.05102c1.8575 0 3.3727 1.5259 3.3727 3.3964s-1.5152 3.3471-3.3727 3.3471h-13.05102v7.2358h15.49502c1.8575 0 3.3728 1.5259 3.3728 3.3964 0 1.8704-1.5153 3.3471-3.3728 3.3471z" transform="matrix(.998519 .0544118 -.0538413 .99855 416.173 139.215)"/><path d="m0 31.2553v-27.46529c0-2.1165 1.662-3.79001 3.76393-3.79001 2.10194 0 3.76394 1.67351 3.76394 3.79001v11.56689l13.88253-13.88027c.9288-.9352 1.8575-1.47663 3.1774-1.47663 2.1019 0 3.4706 1.62429 3.4706 3.49469 0 1.1813-.5377 2.06728-1.3687 2.85481l-9.6298 9.0567 10.5097 13.2896c.5866.7383 1.0265 1.5259 1.0265 2.6579 0 2.1165-1.6131 3.6916-3.8128 3.6916-1.4665 0-2.3463-.7383-3.1773-1.8212l-9.7765-12.8958-4.30163 4.0361v6.8909c0 2.1165-1.662 3.79-3.76394 3.79-2.10193 0-3.76393-1.6735-3.76393-3.79z" transform="matrix(.996048 -.0888139 .0855281 .996336 372.079 131.383)"/><path d="m0 17.919c0 9.7963 7.57568 17.722 18.1326 17.722 10.5571 0 18.2304-8.0241 18.2304-17.919 0-9.79631-7.5756-17.722-18.1325-17.722-10.55716 0-18.2305 8.02414-18.2305 17.919zm28.4941-.0001c0 5.9074-4.2031 10.7317-10.2636 10.7317-6.0606 0-10.3616-4.9228-10.3616-10.8301v-.0985c0-5.9073 4.2034-10.73167 10.2637-10.73167 6.0605 0 10.3615 4.92277 10.3615 10.83017z" transform="translate(323.832 140.786)"/><path d="m0 17.9068c.00007812 9.7897 7.58084 17.7101 18.1453 17.7101 10.5644 0 18.2434-8.0188 18.2432-17.9068.0002-9.7898-7.5808-17.71008668-18.1452-17.7101-10.56448-.00001332-18.24325882 8.01871-18.2433 17.9068zm28.5138-.0001c0 5.9034-4.206 10.7244-10.2709 10.7244-6.0648 0-10.36879-4.9194-10.36881-10.8228l-.00012-.0983c-.00001-5.9034 4.20623-10.72446 10.27113-10.72446 6.0648-.00003 10.3688 4.91946 10.3688 10.82276z" transform="matrix(.980936 .194331 -.187346 .982294 482.305 140.786)"/><path d="m.00015592 3.78387-.00015592 27.12533c.00001884 2.1131 1.66483 3.7838 3.77035 3.7838s3.77041-1.6707 3.77038-3.7838l.00001-6.8305h5.72896c7.6875.0001 13.8571-4.1277 13.8573-12.1867-.0001-7.02708-4.9455-11.89195472-13.1228-11.89195345l-10.2339-.00004655c-2.10552.00000004-3.77016292 1.67081-3.77014408 3.78387zm13.51404408 13.56253h-5.97372l.00008-10.51602h5.82694c3.7702-.00002 6.1205 1.81818 6.1207 5.20892l-.0001.0982c0 2.9484-2.2034 5.2089-5.9739 5.2089z" transform="matrix(.949303 -.314362 .303744 .952754 285 143.343)"/></g><g fill="#5270f4" opacity=".5"><ellipse cx="589.56923" cy="21.56611" rx="3.56923" ry="3.56611"/><ellipse cx="602.95423" cy="21.56611" rx="3.56923" ry="3.56611"/><ellipse cx="616.33823" cy="21.56611" rx="3.56923" ry="3.56611"/><ellipse cx="629.72323" cy="21.56611" rx="3.56923" ry="3.56611"/><ellipse cx="643.10723" cy="21.56611" rx="3.56923" ry="3.56611"/><ellipse cx="656.49223" cy="21.56611" rx="3.56923" ry="3.56611"/><ellipse cx="589.56923" cy="34.93901" rx="3.56923" ry="3.56611"/><ellipse cx="602.95423" cy="34.93901" rx="3.56923" ry="3.56611"/><ellipse cx="616.33823" cy="34.93901" rx="3.56923" ry="3.56611"/><ellipse cx="629.72323" cy="34.93901" rx="3.56923" ry="3.56611"/><ellipse cx="643.10723" cy="34.93901" rx="3.56923" ry="3.56611"/><ellipse cx="656.49223" cy="34.93901" rx="3.56923" ry="3.56611"/><ellipse cx="589.56923" cy="48.31191" rx="3.56923" ry="3.56611"/><ellipse cx="602.95423" cy="48.31191" rx="3.56923" ry="3.56611"/><ellipse cx="616.33823" cy="48.31191" rx="3.56923" ry="3.56611"/><ellipse cx="629.72323" cy="48.31191" rx="3.56923" ry="3.56611"/><ellipse cx="643.10723" cy="48.31191" rx="3.56923" ry="3.56611"/><ellipse cx="656.49223" cy="48.31191" rx="3.56923" ry="3.56611"/><ellipse cx="589.56923" cy="61.68491" rx="3.56923" ry="3.56611"/><ellipse cx="602.95423" cy="61.68491" rx="3.56923" ry="3.56611"/><ellipse cx="616.33823" cy="61.68491" rx="3.56923" ry="3.56611"/><ellipse cx="629.72323" cy="61.68491" rx="3.56923" ry="3.56611"/><ellipse cx="643.10723" cy="61.68491" rx="3.56923" ry="3.56611"/><ellipse cx="656.49223" cy="61.68491" rx="3.56923" ry="3.56611"/><ellipse cx="589.56923" cy="75.05781" rx="3.56923" ry="3.56611"/><ellipse cx="602.95423" cy="75.05781" rx="3.56923" ry="3.56611"/><ellipse cx="616.33823" cy="75.05781" rx="3.56923" ry="3.56611"/><ellipse cx="629.72323" cy="75.05781" rx="3.56923" ry="3.56611"/><ellipse cx="643.10723" cy="75.05781" rx="3.56923" ry="3.56611"/><ellipse cx="656.49223" cy="75.05781" rx="3.56923" ry="3.56611"/><ellipse cx="589.56923" cy="88.43071" rx="3.56923" ry="3.56611"/><ellipse cx="602.95423" cy="88.43071" rx="3.56923" ry="3.56611"/><ellipse cx="616.33823" cy="88.43071" rx="3.56923" ry="3.56611"/><ellipse cx="629.72323" cy="88.43071" rx="3.56923" ry="3.56611"/><ellipse cx="643.10723" cy="88.43071" rx="3.56923" ry="3.56611"/><ellipse cx="656.49223" cy="88.43071" rx="3.56923" ry="3.56611"/></g></svg>