<svg width="24" height="24" viewBox="0 0 24 24" version="1.1" xmlns="http://www.w3.org/2000/svg" xmlns:xlink="http://www.w3.org/1999/xlink"><title>direct-down</title><desc>Created with Sketch.</desc><g id="direct-down" stroke="none" stroke-width="1" fill="none" fill-rule="evenodd"><path d="M5.27716686,8.40999587 C5.41079581,8.27029287 5.55505218,8.16703569 5.70994028,8.10022121 C5.86482838,8.03340674 6.03034358,8 6.20649083,8 C6.36441596,8 6.5117093,8.02885127 6.64837527,8.08655468 C6.78504124,8.14425809 6.91107575,8.23081191 7.02648257,8.34621873 L12.0375432,13.3663904 L16.9939377,8.40999587 C17.2065292,8.19740436 17.4525243,8.07288834 17.7319303,8.03644408 C18.0113363,7.99999982 18.2694792,8.06681329 18.5063669,8.2368865 C18.797921,8.43732993 18.9603992,8.72128719 18.9938065,9.08876681 C19.0272137,9.45624643 18.925475,9.75538857 18.6885873,9.98620221 L13.6684157,14.9972628 C13.2007143,15.4649642 12.6464662,15.6988113 12.0056546,15.6988113 C11.3648431,15.6988113 10.8105949,15.4649642 10.3428936,14.9972628 L5.38649909,10.0408683 C5.15568545,9.80398064 5.02813245,9.5306528 5.00383628,9.22087659 C4.97954011,8.91110038 5.07064939,8.64080951 5.27716686,8.40999587 Z" id="navigatedown" fill="#212529"/></g></svg>