<svg fill="none" height="24" viewBox="0 0 24 24" width="24" xmlns="http://www.w3.org/2000/svg"><g stroke="#000" stroke-linecap="round" stroke-linejoin="round" stroke-width="2"><path d="m1 2c.55228 0 1-.44772 1-1 0-.552285-.44772-1-1-1-.552285 0-1 .447715-1 1 0 .55228.447715 1 1 1z" transform="translate(11 11)"/><path d="m1 2c.55228 0 1-.44772 1-1 0-.552285-.44772-1-1-1-.552285 0-1 .447715-1 1 0 .55228.447715 1 1 1z" transform="translate(11 4)"/><path d="m1 2c.55228 0 1-.44772 1-1 0-.552285-.44772-1-1-1-.552285 0-1 .447715-1 1 0 .55228.447715 1 1 1z" transform="translate(11 18)"/></g></svg>