<svg height="24" viewBox="0 0 24 24" width="24" xmlns="http://www.w3.org/2000/svg"><g fill="none" fill-rule="evenodd"><rect fill="#000" height="24" rx="3.52" width="24"/><path d="m8.97124836 18.5795958-2.67378687-10.72397337c-.20828412-.83538198.2875607-1.66060634 1.12294268-1.86889047l4.06034503-1.01235771c3.2443905-.8089174 5.6861046.62517842 6.3787704 3.40330921l.0096877.03885497c.7846983 3.14725307-1.2562846 5.38948297-4.3064002 6.14996217l-2.2730161.5667266.6732905 2.7004208c.2082841.835382-.2875607 1.6606064-1.1229427 1.8688905s-1.66060632-.2875607-1.86889044-1.1229427zm1.65493974-6.1079345 2.3701535-.5909456c1.4959166-.3729739 2.147338-1.4846101 1.856709-2.65025938l-.0096877-.03885498c-.3342233-1.34049667-1.445964-1.82681052-2.9418805-1.45383663l-2.31187111.5764142z" fill="#fff"/></g></svg>