<svg width="77" height="13" viewBox="0 0 77 13" version="1.1" xmlns="http://www.w3.org/2000/svg" xmlns:xlink="http://www.w3.org/1999/xlink"><title>POKETO</title><desc>Created with Sketch.</desc><g id="Page-1" stroke="none" stroke-width="1" fill="none" fill-rule="evenodd"><g id="Feed" transform="translate(-122.000000, -92.000000)" fill="#212529"><path d="M122.66,102.864 L122.66,94.032 C122.66,93.344 123.204,92.8 123.892,92.8 L127.236,92.8 C129.908,92.8 131.524,94.384 131.524,96.672 L131.524,96.704 C131.524,99.296 129.508,100.64 126.996,100.64 L125.124,100.64 L125.124,102.864 C125.124,103.552 124.58,104.096 123.892,104.096 C123.204,104.096 122.66,103.552 122.66,102.864 Z M125.124,98.448 L127.076,98.448 C128.308,98.448 129.028,97.712 129.028,96.752 L129.028,96.72 C129.028,95.616 128.26,95.024 127.028,95.024 L125.124,95.024 L125.124,98.448 Z M140.288,104.192 C136.832,104.192 134.352,101.616 134.352,98.432 L134.352,98.4 C134.352,95.216 136.864,92.608 140.32,92.608 C143.776,92.608 146.256,95.184 146.256,98.368 L146.256,98.4 C146.256,101.584 143.744,104.192 140.288,104.192 Z M140.32,101.92 C142.304,101.92 143.68,100.352 143.68,98.432 L143.68,98.4 C143.68,96.48 142.272,94.88 140.288,94.88 C138.304,94.88 136.928,96.448 136.928,98.368 L136.928,98.4 C136.928,100.32 138.336,101.92 140.32,101.92 Z M149.948,102.864 L149.948,93.936 C149.948,93.248 150.492,92.704 151.18,92.704 C151.868,92.704 152.412,93.248 152.412,93.936 L152.412,97.696 L156.956,93.184 C157.26,92.88 157.564,92.704 157.996,92.704 C158.684,92.704 159.132,93.232 159.132,93.84 C159.132,94.224 158.956,94.512 158.684,94.768 L155.532,97.712 L158.972,102.032 C159.164,102.272 159.308,102.528 159.308,102.896 C159.308,103.584 158.78,104.096 158.06,104.096 C157.58,104.096 157.292,103.856 157.02,103.504 L153.82,99.312 L152.412,100.624 L152.412,102.864 C152.412,103.552 151.868,104.096 151.18,104.096 C150.492,104.096 149.948,103.552 149.948,102.864 Z M164.072,104 C163.384,104 162.84,103.456 162.84,102.768 L162.84,94.032 C162.84,93.344 163.384,92.8 164.072,92.8 L170.28,92.8 C170.888,92.8 171.384,93.296 171.384,93.904 C171.384,94.512 170.888,94.992 170.28,94.992 L165.288,94.992 L165.288,97.264 L169.56,97.264 C170.168,97.264 170.664,97.76 170.664,98.368 C170.664,98.976 170.168,99.456 169.56,99.456 L165.288,99.456 L165.288,101.808 L170.36,101.808 C170.968,101.808 171.464,102.304 171.464,102.912 C171.464,103.52 170.968,104 170.36,104 L164.072,104 Z M177.668,102.864 L177.668,95.072 L175.3,95.072 C174.676,95.072 174.164,94.56 174.164,93.936 C174.164,93.312 174.676,92.8 175.3,92.8 L182.5,92.8 C183.124,92.8 183.636,93.312 183.636,93.936 C183.636,94.56 183.124,95.072 182.5,95.072 L180.132,95.072 L180.132,102.864 C180.132,103.552 179.588,104.096 178.9,104.096 C178.212,104.096 177.668,103.552 177.668,102.864 Z M192.368,104.192 C188.912,104.192 186.432,101.616 186.432,98.432 L186.432,98.4 C186.432,95.216 188.944,92.608 192.4,92.608 C195.856,92.608 198.336,95.184 198.336,98.368 L198.336,98.4 C198.336,101.584 195.824,104.192 192.368,104.192 Z M192.4,101.92 C194.384,101.92 195.76,100.352 195.76,98.432 L195.76,98.4 C195.76,96.48 194.352,94.88 192.368,94.88 C190.384,94.88 189.008,96.448 189.008,98.368 L189.008,98.4 C189.008,100.32 190.416,101.92 192.4,101.92 Z" id="POKETO"/></g></g></svg>