<svg fill="none" height="24" viewBox="0 0 24 24" width="24" xmlns="http://www.w3.org/2000/svg"><g stroke="#000"><path d="m8.73802.962744-8.470001 14.139956c-.174632.3025-.26703328.6453-.2680111.9946-.00097782.3492.0895019.6926.2624371.996.172936.3034.4223.5562.723282.7333.300983.1771.643093.2723.992293.2761h16.93998c.3492-.0038.6913-.099.9923-.2761s.5504-.4299.7233-.7333.2634-.6468.2624-.996c-.0009-.3493-.0933-.6921-.268-.9946l-8.47-14.139956c-.1783-.293894-.4293-.536881-.7288-.705516-.2995-.1686361-.6374-.2572281-.9812-.2572281-.3437 0-.68165.088592-.98118.2572281-.29952.168635-.55053.411622-.7288.705516z" stroke-linecap="round" stroke-linejoin="round" stroke-width="2" transform="translate(1.55198 2.89725)"/><path d="m0 0v4" stroke-linecap="round" stroke-linejoin="round" stroke-width="2" transform="translate(12 9)"/><circle cx="12" cy="17" fill="#292723" r=".5"/></g></svg>
