<svg height="391" viewBox="0 0 738 391" width="738" xmlns="http://www.w3.org/2000/svg"><g fill="#ffccc5" fill-rule="evenodd" opacity=".25" transform="translate(-38 -34)"><path d="m86.0967604 142.059157c128.5964576-113.7762305 307.9546756 39.649293 411.1702526-23.559724 103.215578-63.2090174 356.178347-12.641804 257.192916 144.231484s-296.956294 160.89568-369.714816 76.425448-172.589983-9.194039-244.502476 11.492549c-71.9124925 20.686587-182.7423343-94.813526-54.1458766-208.589757z" transform="matrix(.96592583 -.25881905 .25881905 .96592583 -49.19521 112.32528)"/><path d="m640.5 347c-20.5 17.5-33.5 62 8 62s64.5-37 95-43 42-74.5 21-92-103.5 55.5-124 73z"/><path d="m289.708978 125.20167c39.5 0 90-2.52094 113.5-10.713995s16-34.0326905-13.5-27.4152229-68.5 20.7977549-100 16.3861099c-31.5-4.4116447-39.5 21.743108 0 21.743108z"/></g></svg>
