<?xml version="1.0" encoding="UTF-8"?>
<svg width="448px" height="243px" viewBox="0 0 448 243" version="1.1" xmlns="http://www.w3.org/2000/svg" xmlns:xlink="http://www.w3.org/1999/xlink">
    <!-- Generator: Sketch 49.3 (51167) - http://www.bohemiancoding.com/sketch -->
    <title>Shape</title>
    <desc>Created with Sketch.</desc>
    <defs></defs>
    <g id="Screens" stroke="none" stroke-width="1" fill="none" fill-rule="evenodd">
        <polygon id="Shape" fill="#000000" points="0.493171147 1.21180113 2.13516111 1.65293117 4.54346093 0.78243924 6.10998015 1.63418564 8.93118281 0.763866143 10.8958756 1.56125056 12.236235 1.21150359 14.4240864 1.12850124 16.7846814 0.615486859 18.5222965 0.953643447 20.4424324 0.737935399 22.8665245 1.14884122 24.9249848 0.6090852 26.5408177 1.19930418 28.5746028 0.968005864 30.311058 0.99561488 32.7129381 0.961831205 34.3573783 1.24070069 36.9155691 1.28425353 38.6776607 0.983540324 40.6972502 0.359294617 42.8509254 0.822264891 44.27464 0.83134665 46.1068745 0.546678627 48.5152953 0.761986097 50.5857488 0.474836423 52.1306573 0.642169275 54.7291277 0.694174898 56.8907659 0.489250545 58.4678018 1.07367518 60.3285261 0.470008736 62.5577039 0.346505049 64.4510808 0.99786412 66.5419401 0.362622425 68.0899576 0.880987816 70.8163681 0.482786833 72.274459 0.452283643 74.0899236 0.882334394 76.8470811 0 78.1610609 0.741069799 80.3218173 0.290453774 82.281739 0.0121674587 84.4220515 0.227590672 86.2153599 0.452960792 88.6779672 0.888383554 90.422897 0.103608175 92.4344213 0.466916011 94.6699607 0.0978152652 96.7507858 0.506374917 98.3370374 0.105717693 100.570405 0.289460951 102.196907 0.915982302 104.933303 0.61171473 106.266888 0.283115283 108.910973 0.512842898 110.3163 0.235021192 112.393696 1.03011434 114.916991 0.672302872 116.703074 0.678968999 118.716927 0.356347976 120.38214 1.07849958 122.010727 0.303518555 124.218599 0.476034965 126.957406 0.818705629 128.717585 1.19593601 130.630217 0.723851443 132.070985 0.488209584 134.550396 0.71713825 136.289401 0.886583651 138.011636 1.00141417 140.490934 0.83567568 142.867785 1.22408249 144.398631 1.35161941 146.781279 1.06505318 148.843667 0.936477643 149.989829 0.93501648 152.904156 1.25011469 154.713581 0.882240457 156.82212 1.09848185 158.085512 0.530984676 160.523232 0.98809719 161.999069 1.40412165 164.242946 1.1571325 166.203093 0.566023346 168.552186 1.4394067 170.530964 1.14738742 172.240564 1.05825163 174.918982 1.19549129 176.725088 1.48880053 178.912905 0.977429932 180.619144 1.34997668 182.149439 1.38120084 184.445889 0.830327622 186.873166 1.51710848 188.918745 1.16889555 190.279136 1.00920921 192.261043 0.715161839 194.573232 1.40144259 196.488292 1.13960698 198.776163 1.06841278 200.913376 0.995412039 202.074551 1.20258328 204.43218 0.905254614 206.295841 1.13326324 208.257949 1.5337665 210.41514 1.24255651 212.753557 1.00387096 214.785126 0.85958794 216.329083 1.23810608 218.706544 1.83468713 220.546786 1.62558705 222.649986 1.56293724 224.601966 1.29568521 226.043642 0.980976111 228.222715 1.03469994 230.397847 1.82438977 232.087594 1.67842143 234.688186 1.91304896 236.978543 1.37618491 238.048124 1.96560471 240.395992 1.21043046 242.510545 1.44614316 244.744544 1.94598586 246.201981 1.40318458 248.11627 1.503565 250.013935 1.86749754 252.472522 2.09375883 254.688257 1.71922344 256.776671 1.85622249 258.032707 1.60810236 260.052256 1.66050945 262.93978 1.55852078 264.634046 1.46802266 266.180625 2.02043781 268.150396 1.88221352 270.142487 1.43748498 272.057274 1.81902057 274.252018 2.18410859 276.069897 1.61260819 278.318025 1.87384167 280.693056 2.23876159 282.863857 2.16345345 284.130366 1.47876375 286.927338 1.49853226 288.929272 1.46577493 290.092314 2.20764772 292.639524 2.34939325 294.057403 1.51875653 296.221875 1.78306253 298.218496 1.6037499 300.033281 1.93377715 302.019255 2.41877858 304.495927 2.1972155 306.40305 2.32261642 308.611818 1.80101484 310.116613 2.31257163 312.525827 1.93614692 314.437859 2.35242888 316.020568 1.5890759 318.079637 2.53918674 320.495195 1.77027835 322.723834 2.3600305 324.926811 2.15962208 326.056038 1.92866884 328.292725 2.23133655 330.735622 2.26484471 332.125071 2.1826256 334.874225 2.53956355 336.438245 2.39104522 338.014105 2.08996978 340.855581 2.01989097 342.783858 2.1244483 344.924096 2.64688341 346.521058 1.91447745 348.675548 2.49600248 350.168663 2.23331398 352.853856 1.76128779 354.227338 2.19375841 356.536274 2.0143132 358.600636 2.14809281 359.99941 2.29576664 362.602248 1.58450674 364.883154 2.20334604 366.30372 2.47282519 368.060596 1.51737309 370.484646 2.02968189 372.364032 2.1047181 374.93716 2.32284215 376.838776 1.85927247 378.644181 2.25061809 380.135989 2.20532738 382.807729 1.57659971 384.266515 2.0939706 386.648022 1.47952529 388.717648 1.61565931 390.510536 1.52484937 392.479775 1.43740194 394.077701 2.00300627 396.369686 1.69222798 398.206405 1.94593713 400.494109 1.86694168 402.337718 1.85990027 404.563234 1.36648708 406.175935 1.40692248 408.249695 1.97037796 410.5037 1.77494452 412.565335 1.50979775 414.256337 1.47902844 416.733786 1.13428598 418.509821 1.74070462 420.470517 1.72849657 422.509674 1.60156289 424.39411 1.35935544 426.666872 1.12458672 428.952609 1.58132962 430.836241 1.59287174 432.295096 1.41627932 434.738622 1.37114479 436.441145 1.58562244 438.567271 1.6266808 440.543879 1.06174423 442.711748 1.45242667 444.975656 1.02833356 446.927129 1.07532782 446.190167 3.41295423 446.075041 4.97172243 446.299845 7.26329776 446.088474 9.43126702 446.846665 11.0325893 446.506448 13.1881878 446.973972 15.6079252 446.860206 17.2351797 446.675555 19.2718413 446.697017 20.8861097 446.654136 23.4184975 446.79641 24.8035822 447.008578 26.9461704 446.570424 29.5932474 447.1276 30.8068277 446.494544 33.0101697 446.403003 35.0798623 447.043339 36.7900726 447.189123 39.6665019 447.338741 41.6596897 447.285667 43.0819162 447.419362 44.7354915 447.108646 47.6837659 446.640136 49.013589 446.901591 50.8637521 447.079378 53.5857799 447.096538 55.5636832 447.00745 56.8874718 446.667265 58.8826254 447.03873 61.4643159 447.603269 63.5742877 447.397941 64.9679784 447.030206 67.1595513 446.995312 68.9295978 447.394223 71.6508664 446.822362 73.5413555 446.731119 75.2576769 446.878587 77.5804529 447.125497 79.6834242 447.761912 81.5900801 447.374881 83.530473 447.548219 85.1683546 447.790481 87.5854003 447.582939 89.5760235 446.988353 91.377035 447.028269 93.3446661 447.480776 95.4591818 447.017272 97.1584236 447.728946 99.2490456 447.466075 101.0532 447.549294 103.086296 447.72982 105.515398 447.134931 107.5627 447.321732 109.659124 447.232513 111.587652 447.553395 113.280972 447.114014 115.616857 447.154945 116.90227 447.704932 118.805289 447.093102 120.84095 446.970473 123.292758 447.039253 124.753569 446.817219 127.556198 447.362967 128.905215 447.394088 130.942265 447.194951 133.667778 447.289298 135.143586 446.793939 137.628114 447.023454 138.775597 447.665952 141.343878 447.089345 143.14324 447.119534 145.426554 447.632858 146.99726 447.40471 148.97576 447.220286 151.118797 446.760435 152.834292 447.336815 155.61684 447.164964 157.488666 447.292489 159.665397 447.330495 161.357022 446.577895 163.044247 447.406149 165.293606 447.367562 166.90086 447.041388 168.87857 446.757998 170.899756 447.414884 173.410226 447.108328 175.132513 446.885528 176.875292 447.186962 178.769907 447.36442 181.364836 446.889651 182.948178 446.549257 185.217312 447.110127 187.257537 447.214287 189.430856 446.437216 191.434868 447.212106 193.113042 446.643028 195.570418 446.878673 197.584119 446.36664 199.110488 446.866654 201.277823 446.910434 203.499812 446.509015 204.716235 446.96499 206.769868 446.33301 209.212058 446.467952 211.508156 446.940306 213.466414 446.925175 215.262351 446.31451 217.624922 446.223252 218.876328 446.346324 221.413212 446.640032 223.408743 446.529346 225.321431 446.670498 227.142758 446.438909 229.243827 446.828244 231.109839 446.78202 233.446892 446.475162 235.328082 446.433552 237.424682 446.507512 239.527747 446.589466 241.576917 445.289486 241.850988 443.970053 241.921441 441.888497 242.476135 439.147014 242.168054 437.218349 242.24783 435.47936 242.024624 434.01371 242.111639 431.759788 241.903474 429.531454 241.451654 427.310428 241.655969 425.476006 241.452942 423.09481 241.669128 421.820505 240.977394 419.135517 241.641067 417.795221 241.688245 415.512087 240.9506 413.441836 241.325273 411.799395 240.776421 409.067779 240.614268 408.031128 241.216791 405.461221 240.471222 403.481122 240.887438 401.672368 240.613073 399.161939 240.899008 397.176046 240.712544 395.067149 240.68463 393.583846 240.847296 391.635846 240.049481 389.126785 240.176823 387.690045 239.994392 385.15412 240.235556 383.705392 239.83745 381.843068 239.602925 379.993144 239.560631 377.407184 239.530537 375.242495 239.70089 373.796481 239.191583 371.665837 239.729174 369.262957 239.355182 367.898493 239.790493 365.517174 238.938473 363.485062 239.444355 361.286374 238.977979 359.819352 238.989407 357.46073 239.148509 355.820385 238.902876 353.851735 238.97672 351.694349 239.318252 349.581249 239.012781 348.002544 238.747386 345.820942 238.671871 343.151029 239.077608 341.916608 238.687485 339.19378 238.171224 337.842706 238.042665 335.775153 237.909889 333.806237 238.472394 331.837774 237.778849 330.032402 238.454874 327.258372 238.469087 325.637688 237.950878 324.000948 238.002455 321.255278 237.760178 319.779079 238.071303 317.463682 237.710465 315.962394 237.604071 313.601808 237.784056 311.539454 237.649912 309.563473 236.973709 307.8632 237.071951 305.980628 237.705538 303.181837 237.478984 301.962637 236.807529 299.864448 236.768522 297.840373 237.299346 295.474716 237.423142 293.577225 237.134832 291.239765 237.331182 290.087269 236.870445 287.923486 237.33084 285.262449 236.999693 283.73627 236.819241 281.660053 236.686797 279.12285 236.656705 277.91626 236.90309 275.497079 237.126069 273.38045 237.507369 271.986008 236.816659 269.931761 237.617952 267.387297 237.736874 265.127977 237.229903 263.999707 237.244148 261.487164 237.793083 259.841321 237.315422 257.703277 237.609439 255.58206 237.896226 253.917951 237.451887 251.747142 237.187616 249.681517 237.292902 247.898355 238.15155 245.624727 238.060728 243.437144 238.250784 241.348448 237.747149 239.982406 238.324644 238.04268 237.999849 235.171309 237.754392 233.402451 237.797548 231.985843 237.52831 229.622214 238.257545 227.349574 237.952257 225.25519 237.721249 224.110293 237.722343 221.277226 238.083833 219.574945 238.596582 217.351196 237.91893 215.750459 237.96859 213.277024 237.84868 211.667101 238.412532 209.398889 237.959686 207.557998 238.414556 205.252736 238.536647 203.567255 238.453045 201.5312 238.761943 199.880502 238.446009 198.019105 239.04312 195.745116 238.775865 193.459951 238.264531 191.138181 238.436406 189.926742 238.70929 187.427879 239.20696 185.424128 238.642719 183.351855 238.5388 181.758932 238.89776 179.272675 239.116059 177.288574 239.377339 175.866791 238.651647 173.855321 238.641893 171.886028 239.314461 169.707853 239.479788 167.901571 239.383065 165.74265 239.107678 163.95558 239.100222 162.126916 239.153221 159.338864 238.810166 157.217354 239.038795 155.259693 239.814819 153.647842 239.620076 151.820724 239.27063 149.981347 239.179803 147.475353 239.143219 146.019285 239.420014 144.115507 239.373811 142.11928 239.31568 139.392941 239.537942 137.171412 239.905358 135.330187 239.375806 133.317752 239.378576 131.441759 239.969372 129.922435 239.518328 127.760387 239.373535 125.217948 239.781044 123.696476 239.564035 121.576334 240.347246 119.686029 240.387983 117.476578 239.959723 115.874851 240.548824 114.135546 240.234752 111.596903 239.849192 109.765077 239.821056 107.151561 240.076698 106.004939 240.694353 103.788614 239.835976 101.317618 239.997009 99.2403847 240.030977 97.982242 240.157293 95.554607 240.738814 93.3513213 240.774883 92.0435868 240.452693 89.3853448 240.444003 87.5104958 240.63655 85.9978272 241.043276 83.8749092 240.509416 81.4878823 240.660406 79.9196936 240.907097 78.0712708 240.344515 75.6060483 241.108617 73.6400817 241.167783 71.4333326 240.704125 69.2702311 241.219738 67.3382664 240.943515 66.0825211 241.261734 63.3002191 240.904552 61.993515 241.317901 59.6856369 240.925054 57.9645905 241.351131 56.038783 241.434757 53.9955014 241.559381 51.7133794 241.678293 49.9724965 241.292793 47.4611105 241.724554 45.2897634 241.094011 43.3942039 241.711278 41.6232102 241.397293 39.5906981 241.164688 37.9944855 241.736992 35.3161013 241.534398 33.2839142 242.055223 31.8848088 241.514157 29.3048091 241.401653 27.7395361 241.531498 25.681173 241.965645 23.3270705 241.575067 22.1221269 241.884661 19.3359709 241.823299 17.4212754 241.925137 15.7778383 241.768184 13.5510218 242.129063 12.1159148 242.432478 9.54583763 242.428735 7.73590529 241.675361 5.65860053 242.323093 3.63266659 242.215568 1.63832635 242.072586 0.400575137 240.980796 0.542224071 239.163676 0 237.094373 0.10704256 235.038901 0.57264201 233.042832 0.937783651 231.538536 0.746350046 229.477898 0.702798828 227.523714 0.479995784 225.672407 0.120165577 223.629652 0.759015221 221.255524 0.215756562 219.473358 0.104954959 217.556988 0.495353851 215.762783 0.455111988 213.426463 0.226304808 210.998327 0.945796189 208.904955 0.748498037 207.54669 0.0948350194 205.506636 0.824705695 203.099904 0.695154316 201.312476 0.0995019918 199.844794 0.615566271 197.015239 0.421815538 195.176317 0.757940101 193.667568 0.483548175 191.235844 0.0248957541 189.617057 0.253171697 187.565981 0.747758234 185.040075 0.612652829 183.654062 0.501240279 180.976373 0.969995382 179.182973 0.80285264 177.709188 0.732169171 175.455613 0.133054178 173.207864 0.244028538 171.343969 0.899268276 169.516098 0.84949831 167.151904 0.583259058 165.65794 0.829917043 163.234526 0.833361385 160.930383 0.765111468 159.139516 0.903507607 157.765655 0.242357468 155.244834 0.583365614 153.683612 0.30672055 151.429548 0.163690237 149.209459 0.439081327 147.811015 0.0632237054 145.748247 0.856936565 143.811354 0.71272392 140.96741 0.388415963 139.125189 0.196371852 137.524809 0.504198052 134.946697 0.688023635 133.790862 0.0978671431 131.046296 0.90205174 129.257496 0.752256545 126.957984 0.967444113 125.129509 0.655169878 123.529951 0.302359486 121.425773 0.456803293 119.331119 0.278601177 117.828112 0.918348784 115.006812 0.722705684 113.136802 0.275445567 110.923138 0.779017825 109.12508 0.927778724 107.633652 0.535355168 105.098981 0.271102665 102.919655 0.565254362 101.733026 0.188807385 99.4429064 0.149893601 97.5429656 0.184441572 95.1614455 0.72503772 93.0948434 0.989650861 91.0326018 0.889098127 89.6354527 0.0673677078 87.2225627 0.510206453 85.5306916 0.342161201 83.2716841 0.894760626 81.8444364 0.349520577 79.670115 0.610375975 77.5579054 0.739165746 75.0763653 0.179721494 73.2761849 0.54217856 71.1085135 0.221714975 68.9598403 0.325343229 67.7464542 0.649064729 65.4993195 0.746297121 63.2053463 0.987720674 61.4669176 0.708314633 58.9253732 0.664244129 56.9548756 0.462046559 54.8987149 0.584103871 53.1867373 0.609084724 51.2558664 0.442484102 49.156764 0.0706177664 46.972379 0.783739267 45.5657106 0.13569716 43.6743819 0.479277257 41.73 0.797652602 38.9291425 0.714319085 37.2514549 0.645576383 35.7461577 0.97686931 33.4364777 0.412807766 31.5556904 0.608303069 29.3243121 0.386221277 27.3319423 0.103542216 25.1924953 0.503654403 23.7376058 0.531790559 21.823144 0.0942186849 18.9381588 0.37891254 17.5844671 0.580427556 15.7841788 0.245092188 13.5347991 0.51289243 11.0858643 0.670943402 9.63104098 0.338422501 7.82693456 0.0238168745 5.00472733 0.096860326 3.13845357 0.832394052 1.83170064"></polygon>
    </g>
</svg>