<svg height="100" viewBox="0 0 356 100" width="356" xmlns="http://www.w3.org/2000/svg"><g fill="#fff" fill-rule="evenodd"><path d="m266.434765 51.1260453v-36.8349091h-11.392c-3.001946 0-5.465081-2.4203636-5.465081-5.37018177 0-2.94981818 2.463135-5.37018182 5.465081-5.37018182h34.637838c3.001946 0 5.465081 2.42036364 5.465081 5.37018182 0 2.94981817-2.463135 5.37018177-5.465081 5.37018177h-11.392v36.8349091c0 3.2523637-2.617081 5.824-5.926919 5.824s-5.926919-2.5716363-5.926919-5.824z" transform="matrix(.98480775 .17364818 -.17364818 .98480775 9.390714 -46.835538)"/><path d="m201.342152 74.210108c-3.309838 0-5.926919-2.5716364-5.926919-5.824v-41.2974546c0-3.2523636 2.617081-5.824 5.926919-5.824h29.865513c4.233514 0 5.311135 2.3447273 5.311135 5.2189091 0 2.8741819-2.386162 5.1432728-5.311135 5.1432728h-24.015567v10.7403636h20.551783c2.924973 0 5.311136 2.3447273 5.311136 5.2189091s-2.386163 5.1432727-5.311136 5.1432727h-20.551783v11.1185455h24.400432c2.924973 0 5.311135 2.3447272 5.311135 5.2189091 0 2.8741818-2.386162 5.1432727-5.311135 5.1432727z" transform="matrix(.99254615 -.12186934 .12186934 .99254615 -4.206504 26.699037)"/><path d="m132.04869 73.5598944v-42.2050909c0-3.2523636 2.617081-5.824 5.926919-5.824s5.926919 2.5716364 5.926919 5.824v17.7745454l21.860325-21.3294545c1.462486-1.4370909 2.924972-2.2690909 5.003243-2.2690909 3.309838 0 5.465081 2.496 5.465081 5.3701818 0 1.8152727-.846703 3.1767273-2.155243 4.3869091l-15.163676 13.9170909 16.549189 20.4218182c.923676 1.1345454 1.616433 2.3447273 1.616433 4.0843636 0 3.2523637-2.540109 5.6727273-6.003892 5.6727273-2.30919 0-3.694703-1.1345455-5.003244-2.7985455l-15.394594-19.8167272-6.773622 6.2021818v10.5890909c0 3.2523636-2.617081 5.824-5.926919 5.824s-5.926919-2.5716364-5.926919-5.824z" transform="matrix(.9961947 -.08715574 .08715574 .9961947 -3.983799 13.670694)"/><path d="m86.1409013 64.2839743c-16.6261621 0-28.5569729-12.1774546-28.5569729-27.2290909 0-15.2029091 12.0847567-27.53163641 28.7109189-27.53163641 16.6261617 0 28.5569727 12.17745451 28.5569727 27.22909091 0 15.2029091-12.084756 27.5316364-28.7109187 27.5316364zm.153946-10.7403637c9.5446486 0 16.1643247-7.4123636 16.1643247-16.4887272v-.1512728c0-9.0763636-6.773622-16.64-16.3182707-16.64-9.5446486 0-16.1643243 7.4123637-16.1643243 16.4887273v.1512727c0 9.0763637 6.7736216 16.64 16.3182703 16.64z"/><path d="m321.870631 83.1930652c-16.626162 0-28.556973-12.1774546-28.556973-27.2290909 0-15.2029091 12.084757-27.5316364 28.710919-27.5316364s28.556973 12.1774545 28.556973 27.2290909c0 15.2029091-12.084757 27.5316364-28.710919 27.5316364zm.153946-10.7403637c9.544649 0 16.164324-7.4123636 16.164324-16.4887272v-.1512728c0-9.0763636-6.773621-16.64-16.31827-16.64s-16.164324 7.4123637-16.164324 16.4887273v.1512727c0 9.0763637 6.773621 16.64 16.31827 16.64z" transform="matrix(.98162718 .190809 -.190809 .98162718 16.56465 -60.405062)"/><path d="m7.20709223 85.9024095v-41.7512728c0-3.2523636 2.61708108-5.824 5.92691887-5.824h16.0873514c12.8544865 0 20.6287568 7.488 20.6287568 18.304 0 12.4043637-9.6985946 18.7578182-21.7833514 18.7578182h-9.0058378v10.5134546c0 3.2523636-2.6170811 5.824-5.926919 5.824-3.30983779 0-5.92691887-2.5716364-5.92691887-5.824zm11.85383787-20.8756364h9.3907027c5.9269189 0 9.3907027-3.4792727 9.3907027-8.0174545v-.1512728c0-5.2189091-3.6947027-8.0174545-9.6216216-8.0174545h-9.1597838z" transform="matrix(.95105652 -.30901699 .30901699 .95105652 -18.698089 11.998461)"/></g></svg>
